<svg width="40" height="40" viewBox="0 0 40 40" fill="none" xmlns="http://www.w3.org/2000/svg">
<rect width="40" height="40" rx="20" fill="#E8EBF5"/>
<g clip-path="url(#clip0_365_123)">
<path fill-rule="evenodd" clip-rule="evenodd" d="M19.375 13.125V11.25C19.375 10.9048 19.6548 10.625 20 10.625C20.3452 10.625 20.625 10.9048 20.625 11.25V13.125C20.625 13.4702 20.3452 13.75 20 13.75C19.6548 13.75 19.375 13.4702 19.375 13.125ZM25 20C25 22.7614 22.7614 25 20 25C17.2386 25 15 22.7614 15 20C15 17.2386 17.2386 15 20 15C22.7602 15.003 24.997 17.2398 25 20ZM23.75 20C23.75 17.9289 22.0711 16.25 20 16.25C17.9289 16.25 16.25 17.9289 16.25 20C16.25 22.0711 17.9289 23.75 20 23.75C22.0702 23.7478 23.7478 22.0702 23.75 20ZM14.5578 15.4422C14.802 15.6864 15.198 15.6864 15.4422 15.4422C15.6864 15.198 15.6864 14.802 15.4422 14.5578L14.1922 13.3078C13.948 13.0636 13.552 13.0636 13.3078 13.3078C13.0636 13.552 13.0636 13.948 13.3078 14.1922L14.5578 15.4422ZM14.5578 24.5578L13.3078 25.8078C13.1498 25.9658 13.0881 26.196 13.146 26.4119C13.2038 26.6277 13.3723 26.7962 13.5881 26.854C13.804 26.9119 14.0342 26.8502 14.1922 26.6922L15.4422 25.4422C15.6002 25.2842 15.6619 25.054 15.604 24.8381C15.5462 24.6223 15.3777 24.4538 15.1619 24.396C14.946 24.3381 14.7158 24.3998 14.5578 24.5578ZM25 15.625C25.1658 15.6251 25.3249 15.5594 25.4422 15.4422L26.6922 14.1922C26.8502 14.0342 26.9119 13.804 26.854 13.5881C26.7962 13.3723 26.6277 13.2038 26.4119 13.146C26.196 13.0881 25.9658 13.1498 25.8078 13.3078L24.5578 14.5578C24.3789 14.7366 24.3253 15.0056 24.4221 15.2392C24.5189 15.4729 24.7471 15.6252 25 15.625ZM25.4422 24.5578C25.198 24.3136 24.802 24.3136 24.5578 24.5578C24.3136 24.802 24.3136 25.198 24.5578 25.4422L25.8078 26.6922C26.052 26.9364 26.448 26.9364 26.6922 26.6922C26.9364 26.448 26.9364 26.052 26.6922 25.8078L25.4422 24.5578ZM13.75 20C13.75 19.6548 13.4702 19.375 13.125 19.375H11.25C10.9048 19.375 10.625 19.6548 10.625 20C10.625 20.3452 10.9048 20.625 11.25 20.625H13.125C13.4702 20.625 13.75 20.3452 13.75 20ZM20 26.25C19.6548 26.25 19.375 26.5298 19.375 26.875V28.75C19.375 29.0952 19.6548 29.375 20 29.375C20.3452 29.375 20.625 29.0952 20.625 28.75V26.875C20.625 26.5298 20.3452 26.25 20 26.25ZM28.75 19.375H26.875C26.5298 19.375 26.25 19.6548 26.25 20C26.25 20.3452 26.5298 20.625 26.875 20.625H28.75C29.0952 20.625 29.375 20.3452 29.375 20C29.375 19.6548 29.0952 19.375 28.75 19.375Z" fill="#0D121C"/>
</g>
<defs>
<clipPath id="clip0_365_123">
<rect width="20" height="20" fill="white" transform="translate(10 10)"/>
</clipPath>
</defs>
</svg>
